<?xml version="1.0" standalone="no"?><!DOCTYPE svg PUBLIC "-//W3C//DTD SVG 1.1//EN" "http://www.w3.org/Graphics/SVG/1.1/DTD/svg11.dtd"><svg t="1555576113091" class="icon" style="" viewBox="0 0 1024 1024" version="1.1" xmlns="http://www.w3.org/2000/svg" p-id="953" xmlns:xlink="http://www.w3.org/1999/xlink" width="200" height="200"><defs><style type="text/css"></style></defs><path d="M512.31343 100.6c115.1 0 230.2-0.2 345.2 0.1 91.1 0.2 154.6 57.4 164.7 148.1 1.3 12.1 1 24.4 1.1 36.6 1.6 147 1.6 146.6-144.3 133.1-37.7-3.5-56.5-23-60-59.5-0.3-3.5-0.5-7-0.7-10.4-8.1-117.2-8.1-117.2-128.2-117.2-92.4 0-184.8-0.4-277.2 0.2-77.3 0.5-124.4 39.2-127.2 115.3-4 111.4-4 223.2 0.5 334.6 3 74.3 47.9 112.9 123 113.9 118.5 1.7 237.1 1.5 355.7-0.5 17.1-0.3 47.3-13.7 48.3-23.5 2.1-20.5-4.9-49.1-19.3-62.8-29.9-28.6-35.5-60.2-24.5-95 11.9-37.6 44.4-44.6 80.3-43.6 43.6 1.1 87.2 1.6 130.7-0.2 30.7-1.3 44.7 8.1 43.4 41.1-2.1 52.2 1.2 104.7-1.4 156.9-4.7 94.8-66.7 154.6-161.5 155-233.6 0.9-467.3 0.9-700.9-0.1-90-0.3-154.6-56.3-156.8-147-4.3-175.9-4.4-352.1 0.4-528.1 2.5-91.1 71.3-146.8 163.5-147 115.1-0.2 230.1 0 345.2 0z" p-id="954"></path><path d="M675.11343 520.5c0 65.3-38.1 111.3-92.6 111.8-54.1 0.5-99.1-52.1-97.8-114.5 1.2-61.4 44.3-109.5 97.7-109.1 54.5 0.4 92.8 46.6 92.7 111.8z" p-id="955"></path></svg>