<?xml version="1.0" standalone="no"?><!DOCTYPE svg PUBLIC "-//W3C//DTD SVG 1.1//EN" "http://www.w3.org/Graphics/SVG/1.1/DTD/svg11.dtd"><svg t="1587022887124" class="icon" viewBox="0 0 1024 1024" version="1.1" xmlns="http://www.w3.org/2000/svg" p-id="1360" xmlns:xlink="http://www.w3.org/1999/xlink" width="200" height="200"><defs><style type="text/css"></style></defs><path d="M577.8 757.6c-58.3 20.5-116.9 27.6-177 22.9-26.3-2-52.3-6.2-77.8-13.3-4.4-1.2-7.4 0.6-10.8 2.3-33.3 16.6-66.8 33-100 49.9-11.6 5.9-22.7 7.3-33.4-0.9-10.6-8.1-12.5-18.8-10.4-31.8 4.4-27.6 7.5-55.4 11.4-83.1 0.7-5.2-2.5-7.5-5.5-10.3-37.4-35.5-69.9-74.7-89.6-123-36.4-90-29.5-177.1 21.5-259.3 54.4-87.6 136.1-137.6 235.1-159.7 98.4-22 193.9-11.6 284.1 34.2 82.5 41.9 142.3 104.8 170.9 194.4 10.4 32.7 14.3 66.4 11.3 102.2-20.1-18.2-41.5-21.6-65.8-9.6 0.6-23.1-1.4-44.9-7.3-66.4-14.2-52.1-43.5-94.2-85-127.9-65.8-53.5-142.3-75.9-226-73.2-84.9 2.8-160.8 30.5-222 91.1-49.9 49.3-76.4 109-71.9 180.4 3.7 58.4 28.7 107.3 68.9 149 9.8 10.2 20.3 19.8 31.8 28.1 13.8 9.9 18 22.2 13 38.6-5 16.2-8.9 32.8-13.1 49.3-0.7 2.7-2.5 5.7 0.3 8.1 3.2 2.8 6.1 0.1 8.7-1.5 20.8-12.1 41.7-24.1 62.4-36.5 11.7-7.1 23.6-8.8 36.9-5.1 65.7 18.4 131.4 17.9 196.9-0.7 5.2-1.5 7.6-2.4 8 5 1.1 22 13.1 37 34.4 46.8z" p-id="1361"></path><path d="M958 683c0 24.2-17.3 46.2-41.1 50.2-36.4 6.2-67.3 22.1-93 48.6-6.4 6.6-13.1 7.1-18.6 1.9-5.3-5-5.4-12.7 0.9-18.7 27.3-26 42.7-57.8 49.8-94.6 4.9-25.2 30.6-42.1 55.5-39.1 26.7 3.3 46.5 25.4 46.5 51.7z" p-id="1362"></path><path d="M764.4 883.8c-25 0.1-47.4-18-51.2-42.4-5.6-35.6-21.9-65.4-47.5-90.3-3.9-3.8-6.9-7.6-5.6-13.4 2-9.4 12.3-12.9 20.3-6.3 5.9 4.9 11.1 10.7 17 15.6 22.3 18.4 47.9 29.3 76.3 34.5 26.7 4.9 44.7 28.6 42.2 54.8-2.7 27.2-24.6 47.5-51.5 47.5z" p-id="1363"></path><path d="M562.4 691.2c-0.2-24.6 16.9-46.3 41.6-50.7 36.3-6.4 67.2-22.4 92.9-48.9 6.2-6.4 13.4-6.6 18.6-1.2 5.2 5.3 4.5 12.9-2.3 19.5-23.3 22.4-38.7 49.3-45.9 80.8-1.1 4.7-1.6 9.5-3 14.1-7 24.5-31.8 41.1-55.9 37.5-26.7-3.9-45.9-25.2-46-51.1z" p-id="1364"></path><path d="M716.9 555.7c-9.2-19.4-6.6-37.8 6.6-53.9 14.1-17.2 33-23.2 54.4-17.1 20.6 5.9 33.1 20.4 36.9 41.4 2 11.4 5.1 22.4 8.9 33.3-14.8-1.1-29.7-1-44.5-0.9-17.2 0.1-34.4 0.3-51.7 0.4-3.9-0.1-7.5-0.5-10.6-3.2z" p-id="1365"></path><path d="M716.9 555.7c28.6 0 57.3 0.1 85.9-0.3 7.4-0.1 14.4 0.2 21 4 9.5 21.3 22 40.4 39.1 56.5 6.5 6.2 7.1 13.2 2.1 18.6-5.4 5.8-12.6 5.6-19.4-1.3-20.3-20.9-44.3-35.8-72.3-43.8-6.8-1.9-13.8-2.9-20.6-4.7-16.4-4.2-29.2-12.9-35.8-29z" p-id="1366"></path></svg>