<?xml version="1.0" encoding="utf-8"?>
<!-- Generator: Adobe Illustrator 22.1.0, SVG Export Plug-In . SVG Version: 6.00 Build 0)  -->
<svg version="1.1" id="图层_1" xmlns="http://www.w3.org/2000/svg" xmlns:xlink="http://www.w3.org/1999/xlink" x="0px" y="0px"
	 viewBox="0 0 1024 1024" style="enable-background:new 0 0 1024 1024;" xml:space="preserve">
<style type="text/css">
	.st0{display:none;}
	.st1{display:inline;}
	.st2{fill:none;stroke:#000000;stroke-width:89.042;stroke-linecap:round;stroke-linejoin:round;stroke-miterlimit:10;}
</style>
<g class="st0">
	<g class="st1">
		<path d="M1351.5,943c-64.6,0-128.7-14.5-188-43.3c-96.8-47-172.1-127.6-211.9-227.1c-5.1-12.6,1.1-27,13.7-32
			c12.6-5.1,27,1.1,32,13.7c73.9,184.4,273.4,280.4,464,223.3c97.7-29.3,178.1-94.8,226.5-184.6c48.4-89.8,58.9-193,29.6-290.6
			c-29.3-97.6-94.9-178-184.7-226.4c-89.8-48.3-193.1-58.8-290.8-29.6c-90,27-166.5,85.8-215.6,165.7c-7.1,11.6-22.3,15.2-33.9,8.1
			c-11.6-7.1-15.2-22.3-8.1-33.9c55.4-90.2,141.9-156.7,243.5-187.1c55.7-16.7,113.1-22,170.5-15.7c55.4,6.1,108.5,22.6,157.8,49.1
			c49.3,26.5,92.3,61.7,127.9,104.7c36.8,44.4,64,95.2,80.7,150.9s22,113,15.7,170.4c-6.1,55.4-22.6,108.4-49.1,157.7
			s-61.8,92.3-104.7,127.8c-44.5,36.8-95.3,63.9-151,80.6C1434.9,937,1393.1,943,1351.5,943z"/>
	</g>
	<g class="st1">
		<polyline points="1076.3,339.7 957.1,374.3 922.5,255.1 		"/>
	</g>
</g>
<path class="st0" d="M1849.3,754.5c-37.8-21.8-74.8-44.9-112.7-66.5c-55.2-31.5-110.9-62-166.2-93.3c-36.2-20.5-72.2-41.5-108-62.7
	c-8.3-4.9-15.4-11.7-26.7-20.5c144.8-83.3,285.1-164,428.3-246.3c-9.4-6.6-15.8-11.4-22.5-15.8c-24.8-16.4-51.7-21.9-79-9.2
	c-41.1,19.2-81.3,40.6-121.8,61.3c-44.9,23-89.8,46.1-134.7,69.2c-45.6,23.5-90.9,47.8-137,70.3c-16.8,8.2-33.7,18.7-54.8,6
	c-43.6-26.2-88.4-50.2-132.7-75.3c-15.6-8.8-16.6-12.3-9.6-29.2c10.2-24.9,10.6-51.1,5.9-76.5c-10-53.4-46.2-90.8-88.2-119
	c-43.3-29.1-93.8-37.4-146.7-25.2c-37.5,8.7-64.5,31.6-83.5,61.9c-29.2,46.6-23.3,97.2,4,141.2c17.5,28.2,45.6,50.8,72,72.2
	c27.4,22.3,62.5,27.6,96.9,33.6c50.3,8.7,101,16.6,147.3,40.5c17.7,9.1,35.7,17.7,52.7,27.8c14.9,8.8,15.4,16.3,1.8,26.4
	c-14.1,10.4-28.6,20.7-44.3,28.3c-53,25.8-110.4,36.1-168,45.6c-12.5,2-25.7,2.5-37.1,7.2c-57.1,23.5-105.9,55.9-131.7,116.2
	c-27.1,63.5-2.9,143,66.1,174.6c25.5,11.7,51.6,7.2,77.6,9.7c30.7,3,59-5,83.3-20.8c24.6-16,46.7-36.8,66.6-58.4
	c20.7-22.5,31.8-50.8,32.9-82c0.8-22.4,1.7-44.8-9.7-65.7c-5.2-9.6-2.1-16.3,9.5-22.5c40.1-21.5,79.3-44.6,118.2-68.3
	c18.8-11.4,37-19.6,58.5-8.8c48,24.2,96.1,48.4,144,72.7c43.6,22.1,87.1,44.4,130.6,66.7c40.2,20.6,81.8,38.8,120,62.7
	c32,20.1,75.8,10.9,100.1-10.7C1858.2,765.1,1859.8,760.6,1849.3,754.5z M1044.2,351.4c-49.6,2.4-86.4-18.3-112.5-59.3
	c-11.4-18-14.6-38-11.1-58.9c2.7-16.2,23.5-35.8,40.3-37.8c8.2-1,16.6-0.9,25.7-1.4c48.2,0.4,87.9,20.5,108.7,64.3
	C1115,299.7,1103.5,348.5,1044.2,351.4z M1096.7,764.5c-20.9,52.5-81.7,79.4-135.4,67.9c-37.5-8-53.1-41.9-35.9-82.2
	c20.3-47.5,59.4-71.2,116.8-73.3c7.4,1.4,20.7,1.6,31.9,6.5C1108.9,698.4,1107.6,737.1,1096.7,764.5z"/>
<g class="st0">
	<g class="st1">
		<path d="M1701.1,455.9c-12.6-78.2-80.9-137.6-161.6-137.6c-9.7,0-19.4,0.9-28.9,2.6c-54.7-74.3-141.4-118.3-234-118.3
			c-146.8,0-270.9,111.2-288.3,255.6C902.8,474.7,840,549.7,840,638.1c0,101.1,82.2,183.3,183.3,183.3h657.4
			c101.1,0,183.3-82.2,183.3-183.3C1864,543.4,1793.6,466.1,1701.1,455.9z M1680.7,787.5h-657.4c-82.4,0-149.4-67-149.4-149.4
			c0-75.8,56.7-139.6,131.9-148.3l13.9-1.6l1-14c9.7-133.3,122-237.7,255.7-237.7c85.2,0,164.7,42.2,212.6,112.8l6.7,9.8l11.5-2.9
			c10.6-2.6,21.4-4,32.2-4c67.9,0,124.8,53,129.4,120.7l1.1,15.3l15.4,0.5c81.2,2.5,144.7,68.1,144.7,149.2
			C1830.1,720.5,1763.1,787.5,1680.7,787.5z"/>
	</g>
	<path class="st1" d="M1288.4,371.8c-11.3-11.3-30.9-11.3-42.3,0l-102.9,102.9c-8.6,8.6-11.1,21.4-6.4,32.6
		c4.7,11.2,15.5,18.4,27.6,18.4h27.8v105c0,16.5,13.4,29.9,29.9,29.9h90.3c16.5,0,29.9-13.4,29.9-29.9v-105h27.8
		c12.1,0,22.9-7.2,27.6-18.5c4.6-11.2,2.1-24-6.5-32.6L1288.4,371.8z"/>
</g>
<g>
	<g>
		<path d="M358.1,897.5c44.8,23.3,92.8,37.1,142.8,41.1c48.2,3.8,96.1-1.7,142.5-16.3c46.3-14.6,88.7-37.7,125.9-68.5
			c38.6-31.9,70-70.8,93.3-115.6c11.3-21.8,2.8-48.7-19-60c-21.8-11.3-48.7-2.8-60,19C711,836.5,538.6,891,399.2,818.5
			S205.2,573.6,277.7,434.2c31.4-60.5,83.5-107.7,146.6-133c37.3-15,78.1-22,118-20.4c43.3,1.8,90.7,14,126.6,32.6
			c21.8,11.3,48.7,2.8,60-19c11.3-21.8,2.8-48.7-19-60c-47.7-24.8-107.4-40.3-164-42.6c-52.4-2.1-105.9,7.1-154.8,26.7
			c-40.6,16.3-77.7,39.3-110.2,68.4c-33.6,30.1-61.3,65.8-82.3,106.2c-23.3,44.8-37.1,92.8-41.1,142.8
			c-3.8,48.2,1.7,96.1,16.3,142.5c14.6,46.3,37.7,88.7,68.5,125.9C274.4,842.9,313.3,874.2,358.1,897.5z"/>
	</g>
	<g>
		<path d="M796.3,323.2c18.2,9.4,41.1,5.3,54.7-11.1c15.7-18.9,13.1-47-5.8-62.7L659.1,94.5c-18.9-15.7-47-13.1-62.7,5.8
			s-13.1,47,5.8,62.7l186.2,154.9C790.9,319.9,793.5,321.7,796.3,323.2z"/>
	</g>
	<g>
		<path d="M570.2,410c10.9,5.7,24.1,6.8,36.5,2.1l226.1-86.9c23-8.8,34.4-34.6,25.6-57.5c-8.8-23-34.6-34.4-57.5-25.6l-226.1,86.9
			c-23,8.8-34.4,34.6-25.6,57.5C553.3,397,560.9,405.1,570.2,410z"/>
	</g>
	<g>
		<path class="st2" d="M390.9,337.3"/>
	</g>
</g>
</svg>
