<?xml version="1.0" standalone="no"?><!DOCTYPE svg PUBLIC "-//W3C//DTD SVG 1.1//EN" "http://www.w3.org/Graphics/SVG/1.1/DTD/svg11.dtd"><svg t="1551348161777" class="icon" style="" viewBox="0 0 1024 1024" version="1.1" xmlns="http://www.w3.org/2000/svg" p-id="3027" xmlns:xlink="http://www.w3.org/1999/xlink" width="200" height="200"><defs><style type="text/css"></style></defs><path d="M513.283 959.926c-247.123 0-447.459-200.336-447.459-447.459S266.159 65.008 513.283 65.008s447.459 200.336 447.459 447.459-200.336 447.459-447.459 447.459z m0-813.562c-202.194 0-366.103 163.908-366.103 366.103S311.088 878.57 513.283 878.57s366.103-163.908 366.103-366.103-163.909-366.103-366.103-366.103z m40.678 441.707v46.43h-81.356v-81.356c0-22.466 18.212-40.678 40.678-40.678 44.933 0 81.356-36.423 81.356-81.356s-36.423-81.356-81.356-81.356c-44.933 0-81.356 36.423-81.356 81.356 0 14.896 4.296 28.67 11.284 40.678h-86.888c-3.384-13.074-5.752-26.547-5.752-40.678 0-89.862 72.846-162.712 162.712-162.712 89.862 0 162.712 72.85 162.712 162.712 0 75.73-51.978 138.81-122.034 156.96z m0 168.464h-81.356v-81.356h81.356v81.356z" p-id="3028"></path></svg>