<?xml version="1.0" standalone="no"?><!DOCTYPE svg PUBLIC "-//W3C//DTD SVG 1.1//EN" "http://www.w3.org/Graphics/SVG/1.1/DTD/svg11.dtd"><svg t="1554167431368" class="icon" style="" viewBox="0 0 1024 1024" version="1.1" xmlns="http://www.w3.org/2000/svg" p-id="1840" xmlns:xlink="http://www.w3.org/1999/xlink" width="200" height="200"><defs><style type="text/css"></style></defs><path d="M674.76992 864.32256H228.43392c-1.98656 0-3.968-0.21504-5.9136-0.64-3.18464-0.6912-19.85024-4.98176-35.62496-21.61664-13.22496-13.94176-28.98432-40.22784-28.98432-86.31296 0-70.07744-0.45056-568.86784-0.4608-581.58592-0.04608-3.4304 0.02048-22.31296 6.35904-43.136 10.10176-33.19296 31.5904-55.26016 60.5184-62.1312a27.74016 27.74016 0 0 1 6.43072-0.75264h518.71744c0.68096 0 1.36192 0.0256 2.03776 0.0768 2.7136 0.19968 27.2384 2.31424 52.4544 14.92992 37.02272 18.52928 57.41568 50.7648 57.41568 90.7776 0 87.51104 0.10752 531.2 0.10752 535.68a27.85792 27.85792 0 0 1-10.4704 21.76l-158.87872 126.85824a27.8016 27.8016 0 0 1-17.37216 6.0928z m-441.28768-45.54752l431.5392 0.00512 151.05536-124.59008c-0.03072-115.85536-0.21504-480.27648-0.21504-518.83008 0-18.47296-11.29472-37.90848-28.69248-46.99648-13.8496-7.23456-37.49376-14.35136-41.06752-14.76096l-509.65504 1.38752c-31.78496 5.01248-33.29024 46.93504-33.28 47.36l0.00512 0.5632v592.83968c0 38.30784 24.86272 60.02176 30.3104 63.02208z" fill="" p-id="1841"></path><path d="M485.9392 220.25728H299.68384c-16.95744 0-30.69952-6.21056-30.69952-23.16288s13.7472-23.33184 30.69952-23.33184h188.29824c16.95744 0 30.69952 6.3744 30.69952 23.33184s-15.78496 23.16288-32.7424 23.16288zM721.31072 375.88992H299.68384c-16.95744 0-30.69952-6.29248-30.69952-23.24992s13.7472-23.24992 30.69952-23.24992h421.62688c16.95232 0 28.94848 8.84736 28.94848 23.24992 0 13.12256-12.00128 23.24992-28.94848 23.24992zM721.31072 527.33952H299.68384c-16.95744 0-30.69952-6.29248-30.69952-23.2448 0-16.95744 13.7472-23.24992 30.69952-23.24992h421.62688c16.95232 0 30.69952 6.29248 30.69952 23.24992 0 16.95744-13.75232 23.2448-30.69952 23.2448zM623.81568 793.18016c-16.95232 0-23.26528-10.14784-23.26528-27.10528V639.1808a30.70464 30.70464 0 0 1 30.69952-30.69952h130.99008c16.95744 0 25.30816 11.24864 25.30816 23.2448 0 12.11392-8.35584 23.2448-25.30816 23.2448h-115.15904v111.104c0 16.95744-6.30784 27.10528-23.26528 27.10528z" fill="" p-id="1842"></path></svg>