<?xml version="1.0" standalone="no"?><!DOCTYPE svg PUBLIC "-//W3C//DTD SVG 1.1//EN" "http://www.w3.org/Graphics/SVG/1.1/DTD/svg11.dtd"><svg t="1554167487394" class="icon" style="" viewBox="0 0 1024 1024" version="1.1" xmlns="http://www.w3.org/2000/svg" p-id="3293" xmlns:xlink="http://www.w3.org/1999/xlink" width="200" height="200"><defs><style type="text/css"></style></defs><path d="M661.592062 454.985667H353.375965c-55.320838 0-100.480706-45.159868-100.480706-100.480706V190.800441c0-55.320838 45.159868-100.480706 100.480706-100.480706h308.216097c55.320838 0 100.480706 45.159868 100.480705 100.480706v163.70452c0 55.320838-45.159868 100.480706-100.480705 100.480706zM353.375965 146.76957c-24.837927 0-44.030871 20.32194-44.030871 44.030871v163.70452c0 24.837927 20.32194 44.030871 44.030871 44.030871h308.216097c24.837927 0 44.030871-20.32194 44.030871-44.030871V190.800441c0-24.837927-20.32194-44.030871-44.030871-44.030871H353.375965zM319.506064 933.680265H145.640573c-55.320838 0-100.480706-45.159868-100.480705-100.480706V756.427784c0-55.320838 45.159868-100.480706 100.480705-100.480706h173.865491c55.320838 0 100.480706 45.159868 100.480706 100.480706v76.771775c0 55.320838-45.159868 100.480706-100.480706 100.480706zM145.640573 712.396913C121.931643 712.396913 101.609702 731.589857 101.609702 756.427784v76.771775c0 24.837927 20.32194 44.030871 44.030871 44.030871h173.865491c24.837927 0 44.030871-20.32194 44.030871-44.030871V756.427784c0-24.837927-20.32194-44.030871-44.030871-44.030871H145.640573zM874.972437 933.680265H701.106946c-55.320838 0-100.480706-45.159868-100.480706-100.480706V756.427784c0-55.320838 45.159868-100.480706 100.480706-100.480706h173.865491c55.320838 0 100.480706 45.159868 100.480705 100.480706v76.771775c0 55.320838-45.159868 100.480706-100.480705 100.480706zM701.106946 712.396913c-24.837927 0-44.030871 20.32194-44.030871 44.030871v76.771775c0 24.837927 20.32194 44.030871 44.030871 44.030871h173.865491c24.837927 0 44.030871-20.32194 44.030871-44.030871V756.427784c0-24.837927-20.32194-44.030871-44.030871-44.030871H701.106946z" p-id="3294"></path><path d="M506.919515 558.853363v-108.383683" p-id="3295"></path><path d="M506.919515 587.07828c-15.805954 0-28.224917-12.418964-28.224917-28.224917v-108.383683c0-15.805954 12.418964-28.224917 28.224917-28.224917s28.224917 12.418964 28.224917 28.224917v108.383683c0 15.805954-12.418964 28.224917-28.224917 28.224917z" p-id="3296"></path><path d="M232.573319 667.237045v-107.254686" p-id="3297"></path><path d="M232.573319 695.461963c-15.805954 0-28.224917-12.418964-28.224918-28.224918v-108.383682c0-15.805954 12.418964-28.224917 28.224918-28.224918s28.224917 12.418964 28.224917 28.224918v108.383682c0 15.805954-12.418964 28.224917-28.224917 28.224918z" p-id="3298"></path><path d="M788.039691 667.237045v-107.254686" p-id="3299"></path><path d="M788.039691 695.461963c-15.805954 0-28.224917-12.418964-28.224917-28.224918v-108.383682c0-15.805954 12.418964-28.224917 28.224917-28.224918s28.224917 12.418964 28.224918 28.224918v108.383682c0 15.805954-12.418964 28.224917-28.224918 28.224918z" p-id="3300"></path><path d="M234.831312 559.982359h545.305402" p-id="3301"></path><path d="M780.136714 588.207277H234.831312c-15.805954 0-28.224917-12.418964-28.224917-28.224918s12.418964-28.224917 28.224917-28.224917h545.305402c15.805954 0 28.224917 12.418964 28.224918 28.224917s-12.418964 28.224917-28.224918 28.224918z" p-id="3302"></path></svg>