<?xml version="1.0" encoding="utf-8"?>
<!-- Generator: Adobe Illustrator 22.1.0, SVG Export Plug-In . SVG Version: 6.00 Build 0)  -->
<svg version="1.1" id="图层_1" xmlns="http://www.w3.org/2000/svg" xmlns:xlink="http://www.w3.org/1999/xlink" x="0px" y="0px"
	 viewBox="0 0 1024 1024" style="enable-background:new 0 0 1024 1024;" xml:space="preserve">
<style type="text/css">
	.st0{display:none;}
	.st1{display:inline;}
</style>
<g class="st0">
	<g class="st1">
		<path d="M512.6,1024c76.7,0,152.9-17.3,223.3-51.4c115-55.8,204.4-151.6,251.8-269.8c6-15-1.3-32-16.3-38c-15-6-32,1.3-38,16.3
			C845.5,900.2,608.5,1014.2,382,946.3C266,911.5,170.4,833.6,112.9,727C55.5,620.4,43,497.8,77.8,381.8
			c34.8-116,112.7-211.5,219.4-268.9C403.9,55.4,526.5,43,642.6,77.8c106.9,32,197.8,101.9,256.2,196.8c8.5,13.8,26.5,18.1,40.3,9.6
			c13.8-8.5,18.1-26.5,9.6-40.2C882.8,136.8,780.1,57.9,659.4,21.7C593.2,1.9,525.1-4.4,456.9,3C391.1,10.2,328,29.8,269.4,61.4
			c-58.6,31.5-109.7,73.4-151.9,124.3c-43.7,52.8-76,113.1-95.8,179.3S-4.4,499.3,3,567.4c7.2,65.8,26.8,128.8,58.4,187.3
			s73.4,109.6,124.4,151.8c52.8,43.7,113.2,75.9,179.4,95.8C413.5,1016.8,463.1,1024,512.6,1024z"/>
	</g>
	<g class="st1">
		<polyline points="833,304.9 981.1,347.8 1024,199.8 		"/>
	</g>
</g>
<path d="M1009.3,754.5c-37.8-21.8-74.8-44.9-112.7-66.5c-55.2-31.5-110.9-62-166.2-93.3c-36.2-20.5-72.2-41.5-108-62.7
	c-8.3-4.9-15.4-11.7-26.7-20.5c144.8-83.3,285.1-164,428.3-246.3c-9.4-6.6-15.8-11.4-22.5-15.8c-24.8-16.4-51.7-21.9-79-9.2
	c-41.1,19.2-81.3,40.6-121.8,61.3c-44.9,23-89.8,46.1-134.7,69.2c-45.6,23.5-90.9,47.8-137,70.3c-16.8,8.2-33.7,18.7-54.8,6
	c-43.6-26.2-88.4-50.2-132.7-75.3c-15.6-8.8-16.6-12.3-9.6-29.2c10.2-24.9,10.6-51.1,5.9-76.5c-10-53.4-46.2-90.8-88.2-119
	c-43.3-29.1-93.8-37.4-146.7-25.2c-37.5,8.7-64.5,31.6-83.5,61.9C-9.8,230.4-4,281,23.3,324.9c17.5,28.2,45.6,50.8,72,72.2
	c27.4,22.3,62.5,27.6,96.9,33.6c50.3,8.7,101,16.6,147.3,40.5c17.7,9.1,35.7,17.7,52.7,27.8c14.9,8.8,15.4,16.3,1.8,26.4
	c-14.1,10.4-28.6,20.7-44.3,28.3c-53,25.8-110.4,36.1-168,45.6c-12.5,2-25.7,2.5-37.1,7.2C87.4,630,38.7,662.3,12.8,722.7
	c-27.1,63.5-2.9,143,66.1,174.6c25.5,11.7,51.6,7.2,77.6,9.7c30.7,3,59-5,83.3-20.8c24.6-16,46.7-36.8,66.6-58.4
	c20.7-22.5,31.8-50.8,32.9-82c0.8-22.4,1.7-44.8-9.7-65.7c-5.2-9.6-2.1-16.3,9.5-22.5c40.1-21.5,79.3-44.6,118.2-68.3
	c18.8-11.4,37-19.6,58.5-8.8c48,24.2,96.1,48.4,144,72.7c43.6,22.1,87.1,44.4,130.6,66.7c40.2,20.6,81.8,38.8,120,62.7
	c32,20.1,75.8,10.9,100.1-10.7C1018.2,765.1,1019.8,760.6,1009.3,754.5z M204.2,351.4c-49.6,2.4-86.4-18.3-112.5-59.3
	c-11.4-18-14.6-38-11.1-58.9c2.7-16.2,23.5-35.8,40.3-37.8c8.2-1,16.6-0.9,25.7-1.4c48.2,0.4,87.9,20.5,108.7,64.3
	C275,299.7,263.5,348.5,204.2,351.4z M256.7,764.5c-20.9,52.5-81.7,79.4-135.4,67.9c-37.5-8-53.1-41.9-35.9-82.2
	c20.3-47.5,59.4-71.2,116.8-73.3c7.4,1.4,20.7,1.6,31.9,6.5C268.9,698.4,267.6,737.1,256.7,764.5z"/>
</svg>
