<?xml version="1.0" standalone="no"?><!DOCTYPE svg PUBLIC "-//W3C//DTD SVG 1.1//EN" "http://www.w3.org/Graphics/SVG/1.1/DTD/svg11.dtd"><svg t="1554167517044" class="icon" style="" viewBox="0 0 1024 1024" version="1.1" xmlns="http://www.w3.org/2000/svg" p-id="4732" xmlns:xlink="http://www.w3.org/1999/xlink" width="200" height="200"><defs><style type="text/css"></style></defs><path d="M921.6 204.8 102.4 204.8c-56.558933 0-102.4 45.841067-102.4 102.4l0 409.6c0 56.558933 45.841067 102.4 102.4 102.4l819.2 0c56.558933 0 102.4-45.841067 102.4-102.4L1024 307.2C1024 250.641067 978.158933 204.8 921.6 204.8zM512 697.002667c0 10.939733-8.6016 19.797333-19.2 19.797333L121.6 716.8C111.0016 716.8 102.4 707.9424 102.4 697.002667l0-0.068267c0 0 0-72.226133 51.0976-98.491733 32.375467-16.605867 19.899733-3.089067 59.630933-20.138667 39.697067-16.964267 49.1008-22.903467 49.1008-22.903467l0.3584-39.133867c0 0-14.865067-11.741867-19.473067-48.571733-9.335467 2.798933-12.407467-11.264-12.936533-20.241067-0.494933-8.635733-5.393067-35.6352 5.973333-33.194667-2.338133-18.0224-3.9936-34.286933-3.157333-42.9056 2.833067-30.242133 31.0272-61.815467 74.496-64.136533 51.0976 2.304 71.3728 33.8944 74.205867 64.136533 0.836267 8.618667-1.006933 24.8832-3.328 42.888533 11.3664-2.423467 6.434133 24.541867 5.905067 33.194667-0.529067 8.925867-3.669333 22.971733-12.936533 20.1728-4.676267 36.846933-19.541333 48.503467-19.541333 48.503467l0.3584 38.946133c0 0 9.403733 5.5296 49.1008 22.493867 39.7312 16.9984 27.272533 4.3008 59.630933 20.906667C512 624.708267 512 696.9344 512 696.9344L512 697.002667zM819.2 716.8 614.4 716.8l0-51.2 204.8 0L819.2 716.8zM921.6 563.2 614.4 563.2l0-51.2 307.2 0L921.6 563.2zM921.6 409.6 614.4 409.6l0-51.2 307.2 0L921.6 409.6z" p-id="4733"></path></svg>